<mxfile host="app.diagrams.net" modified="2022-03-14T13:26:26.054Z" agent="5.0 (Windows NT 10.0; Win64; x64) AppleWebKit/537.36 (KHTML, like Gecko) Chrome/99.0.4844.51 Safari/537.36" etag="Qpg-ItvAEh5eRpjt3DOo" version="17.1.2" type="github">
  <diagram id="93C6iqa6HLX6Nu__6SxN" name="Page-1">
    <mxGraphModel dx="1422" dy="762" grid="1" gridSize="10" guides="1" tooltips="1" connect="1" arrows="1" fold="1" page="1" pageScale="1" pageWidth="827" pageHeight="1169" math="0" shadow="0">
      <root>
        <mxCell id="0" />
        <mxCell id="1" parent="0" />
        <mxCell id="kUJI8yTJnBe5R82jSHBj-1" value="&lt;&lt;component&gt;&gt;&#xa;SimudestData" style="shape=module;align=left;spacingLeft=20;align=center;verticalAlign=top;" vertex="1" parent="1">
          <mxGeometry x="30" y="40" width="730" height="370" as="geometry" />
        </mxCell>
        <mxCell id="kUJI8yTJnBe5R82jSHBj-3" value="&lt;&lt;component&gt;&gt;&#xa;UsuarioData" style="shape=module;align=left;spacingLeft=20;align=center;verticalAlign=top;" vertex="1" parent="1">
          <mxGeometry x="110" y="90" width="610" height="280" as="geometry" />
        </mxCell>
        <mxCell id="kUJI8yTJnBe5R82jSHBj-4" value="&amp;lt;&amp;lt;Entity&amp;gt;&amp;gt;&lt;br&gt;Usuario" style="html=1;" vertex="1" parent="1">
          <mxGeometry x="480" y="200" width="110" height="50" as="geometry" />
        </mxCell>
        <mxCell id="kUJI8yTJnBe5R82jSHBj-6" value="&amp;lt;&amp;lt;Repository&amp;gt;&amp;gt;&lt;br&gt;UsuarioRepository" style="html=1;" vertex="1" parent="1">
          <mxGeometry x="230" y="200" width="135" height="50" as="geometry" />
        </mxCell>
        <mxCell id="kUJI8yTJnBe5R82jSHBj-7" value="" style="endArrow=classic;html=1;rounded=0;entryX=0;entryY=0.5;entryDx=0;entryDy=0;dashed=1;exitX=1;exitY=0.5;exitDx=0;exitDy=0;" edge="1" parent="1" source="kUJI8yTJnBe5R82jSHBj-6" target="kUJI8yTJnBe5R82jSHBj-4">
          <mxGeometry width="50" height="50" relative="1" as="geometry">
            <mxPoint x="410" y="20" as="sourcePoint" />
            <mxPoint x="440" y="240" as="targetPoint" />
          </mxGeometry>
        </mxCell>
        <mxCell id="kUJI8yTJnBe5R82jSHBj-8" value="&amp;lt;&amp;lt;use&amp;gt;&amp;gt;" style="edgeLabel;html=1;align=center;verticalAlign=middle;resizable=0;points=[];" vertex="1" connectable="0" parent="kUJI8yTJnBe5R82jSHBj-7">
          <mxGeometry x="0.1623" y="-1" relative="1" as="geometry">
            <mxPoint x="-17" y="-16" as="offset" />
          </mxGeometry>
        </mxCell>
      </root>
    </mxGraphModel>
  </diagram>
</mxfile>
